<svg width="32" height="32" viewBox="0 0 32 32" fill="none" xmlns="http://www.w3.org/2000/svg">
<rect width="32" height="32" rx="16" fill="url(#paint0_radial_1780_4508)"/>
<path d="M24.3073 13.4139C24.2055 12.9622 23.5194 12.7482 22.7485 12.9248C22.5821 12.9656 22.4258 13.0199 22.2832 13.0845L22.633 13.9641C22.6534 13.981 22.6738 13.9946 22.6941 14.0116C22.8809 14.161 23.044 14.3275 23.1832 14.5143C23.9304 14.3207 24.4092 13.852 24.3073 13.4139Z" fill="white"/>
<path d="M9.25833 14.0185C9.2787 14.0015 9.29908 13.9845 9.31945 13.9709L9.67945 13.0675C9.54702 13.0064 9.40436 12.9588 9.25155 12.9249C8.46702 12.7449 7.79795 12.9554 7.69267 13.4139C7.59079 13.8452 8.05607 14.3071 8.77947 14.5075C8.9153 14.3275 9.07494 14.1645 9.25833 14.0185Z" fill="white"/>
<path d="M9.32324 19.8022V21.2999C9.32324 21.6328 9.59156 21.9011 9.92438 21.9011H11.5783C11.9078 21.9011 12.1761 21.6328 12.1761 21.2999V19.9958H10.0806C9.8123 19.9958 9.55418 19.9278 9.32324 19.8022Z" fill="white"/>
<path d="M19.7803 19.9958V21.2999C19.7803 21.6328 20.0486 21.9011 20.3848 21.9011H22.0354C22.3648 21.9011 22.6365 21.6328 22.6365 21.2999V19.8022C22.4055 19.9278 22.1406 19.9958 21.8757 19.9958H19.7803Z" fill="white"/>
<path d="M22.4792 14.2766C22.4341 14.2401 22.3886 14.2063 22.3532 14.1828L20.9986 10.7935C20.8302 10.3716 20.4272 10.099 19.9718 10.099H11.9804C11.525 10.099 11.1221 10.3716 10.9536 10.7935L9.59774 14.1861C9.55396 14.2173 9.51084 14.2501 9.46972 14.2829C8.72248 14.8802 8.41304 15.8079 8.52381 17.1196C8.57489 17.7246 8.71319 18.3196 8.93508 18.8884C9.02463 19.1216 9.18548 19.3166 9.39741 19.4512C9.60006 19.5852 9.83554 19.6559 10.0786 19.6559H21.8736C22.1154 19.6559 22.3585 19.5832 22.5575 19.4519C22.7677 19.3146 22.9266 19.1199 23.0168 18.8891C23.2394 18.3186 23.3777 17.7233 23.4284 17.1196C23.5392 15.8063 23.2287 14.8763 22.4792 14.2766ZM11.3639 13.3709L12.1857 11.3064C12.235 11.181 12.3542 11.1009 12.49 11.1009H19.4625C19.5983 11.1009 19.7176 11.1814 19.7665 11.3057L20.5887 13.3713C20.6301 13.4735 20.6186 13.5832 20.5581 13.6732C20.4963 13.7652 20.3965 13.8179 20.2844 13.8179H11.6682C11.5581 13.8179 11.4596 13.7656 11.3978 13.6746C11.336 13.5835 11.3238 13.4728 11.3639 13.3709ZM11.9774 17.3602H10.4284C10.0005 17.3602 9.65068 17.0104 9.65068 16.5824V16.2292C9.65068 16.0764 9.77294 15.9541 9.92611 15.9541H11.1212C11.4337 15.9541 11.7156 16.0798 11.9228 16.2836C12.1265 16.4907 12.2522 16.7726 12.2522 17.0851C12.2522 17.2379 12.1299 17.3602 11.9774 17.3602ZM18.8644 16.3294L18.39 17.6125C18.357 17.7052 18.2595 17.7656 18.1478 17.7656H13.8057C13.694 17.7656 13.5965 17.7052 13.5639 17.6125L13.0891 16.3294C13.0378 16.1881 13.1591 16.0431 13.3313 16.0431H18.6226C18.7944 16.0431 18.9157 16.1881 18.8644 16.3294ZM22.5699 16.5824C22.5699 16.6894 22.548 16.7915 22.5086 16.8845C22.3901 17.1634 22.1131 17.3602 21.7922 17.3602H20.2435C20.0907 17.3602 19.9684 17.2379 19.9684 17.0851C19.9684 16.7726 20.0941 16.4907 20.3012 16.2836C20.505 16.0798 20.7869 15.9541 21.0993 15.9541H22.2948C22.4511 15.9541 22.5699 16.0764 22.5699 16.2292V16.5824Z" fill="white"/>
<defs>
<radialGradient id="paint0_radial_1780_4508" cx="0" cy="0" r="1" gradientUnits="userSpaceOnUse" gradientTransform="translate(24.1975 6.99755) rotate(86.66) scale(23.791)">
<stop stop-color="#CF06F2"/>
<stop offset="0.05" stop-color="#C705EF"/>
<stop offset="0.5" stop-color="#8D02DC"/>
<stop offset="0.83" stop-color="#6900D0"/>
<stop offset="1" stop-color="#5C00CC"/>
</radialGradient>
</defs>
</svg>
