<svg width="32" height="32" viewBox="0 0 32 32" fill="none" xmlns="http://www.w3.org/2000/svg">
<rect width="32" height="32" rx="16" fill="url(#paint0_radial_1780_4479)"/>
<path d="M23.679 9.91162H8.321C7.59259 9.91162 7 10.5042 7 11.2326V20.7673C7 21.4957 7.59259 22.0883 8.321 22.0883H23.679C24.4074 22.0883 25 21.4957 25 20.7673V11.2326C25 10.5042 24.4074 9.91162 23.679 9.91162ZM12.537 17.84H14.3213C14.5354 17.84 14.7089 18.0136 14.7089 18.2276C14.7089 18.4417 14.5354 18.6152 14.3213 18.6152H12.537C12.3229 18.6152 12.1494 18.4417 12.1494 18.2276C12.1494 18.0136 12.3229 17.84 12.537 17.84ZM8.67625 13.9522C8.67625 13.7381 8.84979 13.5646 9.06385 13.5646H11.3859C11.6 13.5646 11.7735 13.7381 11.7735 13.9522V15.631C11.7735 15.8451 11.5999 16.0186 11.3859 16.0186H9.06385C8.84975 16.0186 8.67625 15.8451 8.67625 15.631V13.9522ZM9.06385 17.84H10.8482C11.0623 17.84 11.2358 18.0136 11.2358 18.2276C11.2358 18.4417 11.0623 18.6152 10.8482 18.6152H9.06385C8.84975 18.6152 8.67625 18.4417 8.67625 18.2276C8.67625 18.0136 8.84982 17.84 9.06385 17.84ZM15.434 20.3388H9.06385C8.84975 20.3388 8.67625 20.1653 8.67625 19.9512C8.67625 19.7372 8.84979 19.5636 9.06385 19.5636H15.434C15.6481 19.5636 15.8216 19.7372 15.8216 19.9512C15.8216 20.1653 15.6481 20.3388 15.434 20.3388ZM17.7945 18.6152H16.0101C15.796 18.6152 15.6225 18.4417 15.6225 18.2276C15.6225 18.0136 15.796 17.84 16.0101 17.84H17.7945C18.0086 17.84 18.1821 18.0136 18.1821 18.2276C18.1821 18.4417 18.0086 18.6152 17.7945 18.6152ZM21.2676 18.6152H19.4832C19.2691 18.6152 19.0956 18.4417 19.0956 18.2276C19.0956 18.0136 19.2692 17.84 19.4832 17.84H21.2676C21.4817 17.84 21.6552 18.0136 21.6552 18.2276C21.6552 18.4417 21.4816 18.6152 21.2676 18.6152ZM22.9362 12.9531H18.7277C18.5136 12.9531 18.3401 12.7796 18.3401 12.5655C18.3401 12.3514 18.5136 12.1779 18.7277 12.1779H22.9362C23.1503 12.1779 23.3238 12.3514 23.3238 12.5655C23.3238 12.7796 23.1502 12.9531 22.9362 12.9531Z" fill="white"/>
<defs>
<radialGradient id="paint0_radial_1780_4479" cx="0" cy="0" r="1" gradientUnits="userSpaceOnUse" gradientTransform="translate(24.1975 6.99755) rotate(86.66) scale(23.791)">
<stop stop-color="#CF06F2"/>
<stop offset="0.05" stop-color="#C705EF"/>
<stop offset="0.5" stop-color="#8D02DC"/>
<stop offset="0.83" stop-color="#6900D0"/>
<stop offset="1" stop-color="#5C00CC"/>
</radialGradient>
</defs>
</svg>
