<svg width="32" height="32" viewBox="0 0 32 32" fill="none" xmlns="http://www.w3.org/2000/svg">
<rect width="32" height="32" rx="16" fill="url(#paint0_radial_1780_4464)"/>
<path d="M22.8668 7.1875H12.2805C11.8943 7.1875 11.583 7.49875 11.583 7.885V8.00875H22.0118C22.4168 8.00875 22.743 8.335 22.743 8.74V21.6663H22.8668C23.253 21.6663 23.5643 21.355 23.5643 20.9688V7.885C23.5643 7.49875 23.253 7.1875 22.8668 7.1875Z" fill="white"/>
<path d="M19.7203 10.3337H9.13402C8.74777 10.3337 8.43652 10.645 8.43652 11.0312V24.1112C8.43652 24.4975 8.74777 24.8087 9.13402 24.8087H19.7203C20.1065 24.8087 20.4178 24.4975 20.4178 24.1112V11.0312C20.4178 10.645 20.1065 10.3337 19.7203 10.3337ZM14.954 22.7425H10.6753V21.9925H14.9503V22.7425H14.954ZM18.179 20.8262H10.679V20.0762H18.179V20.8262ZM18.179 18.9062H10.679V18.1562H18.179V18.9062ZM18.179 16.99H10.679V16.24H18.179V16.99ZM18.179 15.07H10.679V14.32H18.179V15.07ZM18.179 13.1537H10.679V12.4037H18.179V13.1537Z" fill="white"/>
<path d="M21.2917 8.75873H10.7092C10.323 8.75873 10.0117 9.06998 10.0117 9.45623V9.57998H20.4405C20.8455 9.57998 21.1717 9.90623 21.1717 10.3112V23.2375H21.2955C21.6817 23.2375 21.993 22.9262 21.993 22.54V9.45998C21.993 9.07373 21.678 8.75873 21.2917 8.75873Z" fill="white"/>
<defs>
<radialGradient id="paint0_radial_1780_4464" cx="0" cy="0" r="1" gradientUnits="userSpaceOnUse" gradientTransform="translate(24.1975 6.99755) rotate(86.66) scale(23.791)">
<stop stop-color="#CF06F2"/>
<stop offset="0.05" stop-color="#C705EF"/>
<stop offset="0.5" stop-color="#8D02DC"/>
<stop offset="0.83" stop-color="#6900D0"/>
<stop offset="1" stop-color="#5C00CC"/>
</radialGradient>
</defs>
</svg>
