<svg width="32" height="32" viewBox="0 0 32 32" fill="none" xmlns="http://www.w3.org/2000/svg">
<rect width="32" height="32" rx="16" fill="url(#paint0_radial_1780_4486)"/>
<path d="M8.49644 16.02C8.33059 16.0811 8.24511 16.265 8.30552 16.4314L8.50738 16.9868L10.0444 15.4498L8.49644 16.02Z" fill="white"/>
<path d="M9.95117 20.957L10.8769 23.5026C10.9058 23.583 10.9662 23.6485 11.0433 23.6839C11.0864 23.7038 11.1327 23.7141 11.179 23.7141C11.2169 23.7141 11.2542 23.7077 11.2902 23.6942L12.3117 23.3175L9.95117 20.957Z" fill="white"/>
<path d="M23.6947 18.7836L22.6353 15.8709L20.0929 18.4133L21.3529 17.9492C21.5181 17.8862 21.7045 17.9723 21.7656 18.1395C21.8273 18.3059 21.7418 18.4911 21.5753 18.5522L19.9746 19.1423C19.938 19.1558 19.9007 19.1622 19.8634 19.1622C19.7329 19.1622 19.6095 19.0818 19.5619 18.952C19.5613 18.9501 19.5619 18.9481 19.5613 18.9462L16.8672 21.6403L23.5038 19.195C23.6703 19.1339 23.7558 18.9501 23.6947 18.7836Z" fill="white"/>
<path d="M23.6198 13.5226L18.4771 8.3799C18.3518 8.25455 18.148 8.25455 18.0227 8.3799L8.38015 18.0224C8.25479 18.1478 8.25479 18.3516 8.38015 18.4769L13.5228 23.6196C13.5852 23.6826 13.6675 23.7141 13.7498 23.7141C13.8321 23.7141 13.9143 23.6826 13.9773 23.6202L23.6198 13.9777C23.7452 13.8517 23.7452 13.6486 23.6198 13.5226ZM12.0488 17.1919L10.7631 18.4775C10.7001 18.5399 10.6179 18.5714 10.5356 18.5714C10.4533 18.5714 10.371 18.5399 10.308 18.4775C10.1827 18.3522 10.1827 18.1484 10.308 18.023L11.5937 16.7374C11.719 16.612 11.9228 16.612 12.0482 16.7374C12.1735 16.8627 12.1742 17.0659 12.0488 17.1919ZM17.5997 17.6001C17.3721 17.8276 17.0629 17.9369 16.719 17.9369C16.1507 17.9369 15.4867 17.6393 14.9313 17.0832C14.525 16.677 14.2396 16.191 14.1284 15.7153C14.005 15.185 14.1065 14.7234 14.4144 14.4148C14.7224 14.1063 15.1839 14.0047 15.7149 14.1288C16.1906 14.24 16.6766 14.5248 17.0828 14.9317C17.9757 15.8239 18.2033 16.9964 17.5997 17.6001ZM21.6913 13.9777L20.4057 15.2634C20.3426 15.3257 20.2604 15.3573 20.1781 15.3573C20.0958 15.3573 20.0135 15.3258 19.9505 15.2634C19.8252 15.138 19.8252 14.9342 19.9505 14.8089L21.2362 13.5232C21.3616 13.3979 21.5653 13.3979 21.6907 13.5232C21.816 13.6486 21.8167 13.8517 21.6913 13.9777Z" fill="white"/>
<defs>
<radialGradient id="paint0_radial_1780_4486" cx="0" cy="0" r="1" gradientUnits="userSpaceOnUse" gradientTransform="translate(24.1975 6.99755) rotate(86.66) scale(23.791)">
<stop stop-color="#CF06F2"/>
<stop offset="0.05" stop-color="#C705EF"/>
<stop offset="0.5" stop-color="#8D02DC"/>
<stop offset="0.83" stop-color="#6900D0"/>
<stop offset="1" stop-color="#5C00CC"/>
</radialGradient>
</defs>
</svg>
