<svg width="32" height="32" viewBox="0 0 32 32" fill="none" xmlns="http://www.w3.org/2000/svg">
<rect width="32" height="32" rx="16" fill="url(#paint0_radial_1780_4472)"/>
<g clip-path="url(#clip0_1780_4472)">
<path d="M17.9235 9.56907C17.9235 8.50547 17.0586 7.6405 15.995 7.6405C14.9314 7.6405 14.0664 8.50547 14.0664 9.56907C14.0664 10.6327 14.9314 11.4976 15.995 11.4976C17.0586 11.4976 17.9235 10.6327 17.9235 9.56907Z" fill="white"/>
<path d="M13.316 15.9976H18.6731C18.9692 15.9976 19.2088 15.746 19.2088 15.4351V14.8726C19.2088 13.0115 17.767 11.4976 15.9946 11.4976C14.2221 11.4976 12.7803 13.0115 12.7803 14.8726V15.4351C12.7803 15.746 13.0198 15.9976 13.316 15.9976Z" fill="white"/>
<path d="M24.2711 15.6062C24.1697 15.4474 23.9879 15.3497 23.7913 15.3497C22.8024 15.3497 21.8953 15.87 21.4363 16.7002L19.7159 19.8128C19.4244 20.3398 18.8537 20.6675 18.2254 20.6675H14.4168C14.1067 20.6675 13.8559 20.4296 13.8559 20.1357C13.8559 19.8418 14.1067 19.6039 14.4168 19.6039H18.2254C18.4346 19.6039 18.6252 19.4949 18.7222 19.3194L19.7407 17.4768H13.1027C12.3534 17.4768 11.6489 17.7537 11.1193 18.2558L7.80202 21.4008C7.58292 21.6085 7.58292 21.945 7.80202 22.1527L10.6066 24.8368C10.7161 24.9407 10.8597 24.9926 11.0031 24.9926C11.1466 24.9926 11.2902 24.9407 11.3997 24.8368L13.5272 22.7946H18.2254C19.6912 22.7946 21.024 22.0302 21.7032 20.7999L24.2874 16.1287C24.3789 15.964 24.3729 15.7657 24.2711 15.6062Z" fill="white"/>
</g>
<defs>
<radialGradient id="paint0_radial_1780_4472" cx="0" cy="0" r="1" gradientUnits="userSpaceOnUse" gradientTransform="translate(24.1975 6.99755) rotate(86.66) scale(23.791)">
<stop stop-color="#CF06F2"/>
<stop offset="0.05" stop-color="#C705EF"/>
<stop offset="0.5" stop-color="#8D02DC"/>
<stop offset="0.83" stop-color="#6900D0"/>
<stop offset="1" stop-color="#5C00CC"/>
</radialGradient>
<clipPath id="clip0_1780_4472">
<rect width="18" height="18" fill="white" transform="translate(7 7)"/>
</clipPath>
</defs>
</svg>
