<svg width="32" height="32" viewBox="0 0 32 32" fill="none" xmlns="http://www.w3.org/2000/svg">
<rect width="32" height="32" rx="16" fill="url(#paint0_radial_1780_4502)"/>
<path d="M22.285 10.675C21.6212 10.0101 20.7511 9.5907 19.8175 9.48576C18.8838 9.38081 17.9423 9.59653 17.1475 10.0975L18.8125 11.7925C18.879 11.8661 18.9303 11.9522 18.9633 12.0457C18.9963 12.1393 19.0104 12.2385 19.0048 12.3375C18.9993 12.4366 18.9741 12.5335 18.9308 12.6228C18.8874 12.712 18.8269 12.7918 18.7525 12.8575C18.6138 12.9798 18.4349 13.0466 18.25 13.045C18.1441 13.0458 18.0392 13.0242 17.9422 12.9815C17.8453 12.9388 17.7585 12.8761 17.6875 12.7975L15.5725 10.675C15.2692 10.372 14.9199 10.1188 14.5375 9.92499C13.7573 9.52531 12.8707 9.38262 12.0045 9.51733C11.1383 9.65204 10.3369 10.0572 9.71499 10.675C8.93672 11.5809 8.50879 12.7357 8.50879 13.93C8.50879 15.1243 8.93672 16.2791 9.71499 17.185C11.11 18.685 14.5 22.1575 16.0225 22.1575C17.2075 22.1575 19.5325 20.05 21.145 18.4075C21.55 18.0025 21.895 17.6575 22.195 17.32L22.3075 17.2C23.0867 16.2904 23.513 15.131 23.5089 13.9333C23.5048 12.7356 23.0704 11.5792 22.285 10.675ZM17.5 17.125H16.75V17.875C16.75 18.0739 16.671 18.2647 16.5303 18.4053C16.3897 18.546 16.1989 18.625 16 18.625C15.8011 18.625 15.6103 18.546 15.4697 18.4053C15.329 18.2647 15.25 18.0739 15.25 17.875V17.125H14.5C14.3011 17.125 14.1103 17.046 13.9697 16.9053C13.829 16.7647 13.75 16.5739 13.75 16.375C13.75 16.1761 13.829 15.9853 13.9697 15.8447C14.1103 15.704 14.3011 15.625 14.5 15.625H15.25V14.875C15.25 14.6761 15.329 14.4853 15.4697 14.3447C15.6103 14.204 15.8011 14.125 16 14.125C16.1989 14.125 16.3897 14.204 16.5303 14.3447C16.671 14.4853 16.75 14.6761 16.75 14.875V15.625H17.5C17.6989 15.625 17.8897 15.704 18.0303 15.8447C18.171 15.9853 18.25 16.1761 18.25 16.375C18.25 16.5739 18.171 16.7647 18.0303 16.9053C17.8897 17.046 17.6989 17.125 17.5 17.125Z" fill="white"/>
<defs>
<radialGradient id="paint0_radial_1780_4502" cx="0" cy="0" r="1" gradientUnits="userSpaceOnUse" gradientTransform="translate(24.1975 6.99755) rotate(86.66) scale(23.791)">
<stop stop-color="#CF06F2"/>
<stop offset="0.05" stop-color="#C705EF"/>
<stop offset="0.5" stop-color="#8D02DC"/>
<stop offset="0.83" stop-color="#6900D0"/>
<stop offset="1" stop-color="#5C00CC"/>
</radialGradient>
</defs>
</svg>
